HIERARCHY
ROOT Hips
{
	OFFSET 0.000000 0.000000 0.000000
	CHANNELS 6 Xposition Yposition Zposition Zrotation Yrotation Xrotation 
	JOINT LeftUpLeg_virtual
	{
		OFFSET 0.000000 0.000000 0.000000
		CHANNELS 3 Zrotation Yrotation Xrotation
		JOINT LeftUpLeg
		{
			OFFSET 8.479694 -4.795517 -0.379053
			CHANNELS 3 Zrotation Yrotation Xrotation
			JOINT LeftLeg
			{
				OFFSET 0.485052 -32.551468 0.112863
				CHANNELS 3 Zrotation Yrotation Xrotation
				JOINT LeftFoot
				{
					OFFSET 0.438033 -32.635670 -3.012641
					CHANNELS 3 Zrotation Yrotation Xrotation
					JOINT LeftToeBase
					{
						OFFSET 0.970169 -13.225353 11.864223
						CHANNELS 3 Zrotation Yrotation Xrotation
						End Site
						{
							OFFSET 0.000000 0.000000 0.000000
						}
					}
				}
			}
		}
	}
	JOINT RightUpLeg_virtual
	{
		OFFSET 0.000000 0.000000 0.000000
		CHANNELS 3 Zrotation Yrotation Xrotation
		JOINT RightUpLeg
		{
			OFFSET -8.479694 -4.795517 -0.379053
			CHANNELS 3 Zrotation Yrotation Xrotation
			JOINT RightLeg
			{
				OFFSET -0.484100 -32.551483 0.112903
				CHANNELS 3 Zrotation Yrotation Xrotation
				JOINT RightFoot
				{
					OFFSET -0.438985 -32.635651 -3.012681
					CHANNELS 3 Zrotation Yrotation Xrotation
					JOINT RightToeBase
					{
						OFFSET -0.970169 -13.225354 11.864223
						CHANNELS 3 Zrotation Yrotation Xrotation
						End Site
						{
							OFFSET 0.000000 0.000000 0.000000
						}
					}
				}
			}
		}
	}
	JOINT Spine_virtual
	{
		OFFSET 0.000000 0.000000 0.000000
		CHANNELS 3 Zrotation Yrotation Xrotation
		JOINT Spine
		{
			OFFSET 0.000000 7.722015 1.166203
			CHANNELS 3 Zrotation Yrotation Xrotation
			JOINT Spine1
			{
				OFFSET 0.000000 12.024086 0.248766
				CHANNELS 3 Zrotation Yrotation Xrotation
				JOINT Spine2
				{
					OFFSET -0.000000 11.503036 -0.491240
					CHANNELS 3 Zrotation Yrotation Xrotation
					JOINT Neck_virtual
					{
						OFFSET 0.000000 0.000000 0.000000
						CHANNELS 3 Zrotation Yrotation Xrotation
						JOINT Neck
						{
							OFFSET 0.000000 18.430687 -3.123054
							CHANNELS 3 Zrotation Yrotation Xrotation
							JOINT Head
							{
								OFFSET -0.000000 9.051071 1.034021
								CHANNELS 3 Zrotation Yrotation Xrotation
								End Site
								{
									OFFSET 0.000000 0.000000 0.000000
								}
							}
						}
					}
					JOINT LeftShoulder_virtual
					{
						OFFSET 0.000000 0.000000 0.000000
						CHANNELS 3 Zrotation Yrotation Xrotation
						JOINT LeftShoulder
						{
							OFFSET 6.197824 13.665230 -4.064723
							CHANNELS 3 Zrotation Yrotation Xrotation
							JOINT LeftArm
							{
								OFFSET 7.778132 -0.187073 -1.709282
								CHANNELS 3 Zrotation Yrotation Xrotation
								JOINT LeftForeArm
								{
									OFFSET 21.954697 0.000000 -2.041093
									CHANNELS 3 Zrotation Yrotation Xrotation
									JOINT LeftHand
									{
										OFFSET 22.992908 0.000000 -0.870901
										CHANNELS 3 Zrotation Yrotation Xrotation
										End Site
										{
											OFFSET 0.000000 0.000000 0.000000
										}
									}
								}
							}
						}
					}
					JOINT RightShoulder_virtual
					{
						OFFSET 0.000000 0.000000 0.000000
						CHANNELS 3 Zrotation Yrotation Xrotation
						JOINT RightShoulder
						{
							OFFSET -6.197824 13.665230 -4.064723
							CHANNELS 3 Zrotation Yrotation Xrotation
							JOINT RightArm
							{
								OFFSET -7.778132 -0.187073 -1.709282
								CHANNELS 3 Zrotation Yrotation Xrotation
								JOINT RightForeArm
								{
									OFFSET -21.954697 0.000000 -2.041093
									CHANNELS 3 Zrotation Yrotation Xrotation
									JOINT RightHand
									{
										OFFSET -22.992908 0.000000 -0.870901
										CHANNELS 3 Zrotation Yrotation Xrotation
										End Site
										{
											OFFSET 0.000000 0.000000 0.000000
										}
									}
								}
							}
						}
					}
				}
			}
		}
	}
}
MOTION
Frames: 8
Frame Time: 0.033333
29.413780 78.856155 -31.008286 179.941511 -4.046614 -179.955827 -1.495482 1.025854 10.420650 1.770128 -6.949095 -33.373530 7.969595 5.936728 27.451444 -4.772547 -2.735390 -9.953099 0.000000 0.000000 0.000000 2.406609 -0.353894 10.737920 -2.137643 11.235214 -30.823892 -1.744313 5.130596 29.679228 7.981853 4.648717 -15.616483 0.000000 0.000000 0.000000 3.764429 2.898839 -1.572373 -2.260709 -2.199722 -2.652736 -0.642449 -2.091513 7.708280 -0.006683 -0.023373 -0.011230 -1.060255 -0.508580 8.847395 -2.145336 -2.105858 -7.878056 0.000000 0.000000 0.000000 0.625157 0.144331 6.306700 -11.069268 -7.277758 0.023127 -60.549115 -1.092013 -1.688668 1.861663 -15.752547 1.458596 0.000000 0.000000 0.000000 -3.677358 1.607451 5.591641 26.969386 -0.297512 5.662113 47.218993 5.543364 8.985256 -3.649122 19.884626 -2.512383 0.000000 0.000000 0.000000 
29.336304 78.858780 -30.962185 179.904205 -3.686360 179.967876 -1.508836 0.487199 10.291017 1.891033 -7.072059 -33.342320 8.124222 5.849917 27.870575 -4.714675 -2.616575 -9.560615 0.000000 0.000000 0.000000 2.455811 -1.027469 10.457614 -2.447628 11.536076 -30.556245 -1.670161 5.555935 29.192744 8.013299 4.641138 -15.485333 0.000000 0.000000 0.000000 3.768573 2.542225 -1.691839 -2.302599 -2.045405 -2.509325 -0.601873 -1.951179 7.677079 0.021876 -0.103883 0.008387 -1.029344 -0.504836 8.716851 -2.153261 -2.119290 -7.912020 0.000000 0.000000 0.000000 0.624772 0.267578 6.258735 -11.091489 -7.262934 0.119169 -60.772284 -1.336502 -1.566800 1.880629 -15.724328 1.416480 0.000000 0.000000 0.000000 -3.682212 1.599461 5.444776 26.961622 -0.172013 5.644211 47.226896 5.765552 8.981127 -3.607876 19.930562 -2.459295 0.000000 0.000000 0.000000 
29.288038 78.882187 -30.975945 179.881679 -3.895154 179.935555 -1.475836 -0.005171 9.937962 1.722282 -6.836478 -33.047993 8.231010 5.991617 28.185334 -4.846690 -2.700328 -9.569764 0.000000 0.000000 0.000000 2.478327 -1.577205 10.214157 -2.469493 11.118116 -30.149384 -1.462945 5.719090 28.928228 8.228166 4.889494 -15.506734 0.000000 0.000000 0.000000 3.855914 2.130788 -1.742313 -2.308795 -1.994865 -2.497629 -0.557117 -1.988814 7.623769 0.051647 0.046998 -0.057734 -1.018778 -0.693905 8.787435 -2.117024 -2.071580 -7.897468 0.000000 0.000000 0.000000 0.630292 0.202270 6.239756 -11.196661 -7.033164 0.124357 -61.163135 -1.524676 -1.407870 1.877476 -15.798381 1.412471 0.000000 0.000000 0.000000 -3.698359 1.592701 5.502335 26.779760 -0.050444 5.649415 47.142949 6.074825 8.751172 -3.655332 19.703368 -2.497953 0.000000 0.000000 0.000000 
29.241222 78.908569 -31.013500 179.841709 -4.259371 179.947235 -1.411151 -0.297121 9.842858 1.583503 -6.475330 -33.018302 8.234265 6.364845 28.339958 -5.242078 -3.076900 -9.433047 0.000000 0.000000 0.000000 2.470567 -1.879397 10.114399 -2.495499 10.928903 -29.848002 -1.443398 5.731831 28.610950 8.270965 4.956749 -15.522870 0.000000 0.000000 0.000000 3.936918 1.930140 -1.697103 -2.286423 -1.878392 -2.657818 -0.549584 -1.981631 7.633045 0.025944 0.047507 -0.028567 -0.944782 -0.467338 8.770800 -1.960456 -2.103185 -7.815242 0.000000 0.000000 0.000000 0.684876 0.284886 6.306762 -11.308820 -6.777109 0.119154 -61.588506 -1.992825 -0.805432 1.874064 -15.898560 1.391123 0.000000 0.000000 0.000000 -3.666938 1.658252 5.448534 26.504344 -0.008164 5.669575 47.155332 6.103412 8.459095 -3.741256 19.348025 -2.602934 0.000000 0.000000 0.000000 
29.229967 78.936424 -31.069555 179.768339 -4.801926 179.938001 -1.304223 -0.450681 9.966106 1.453375 -6.382555 -33.235509 8.304798 6.882549 28.435831 -5.790736 -3.639296 -9.108413 0.000000 0.000000 0.000000 2.474511 -2.079596 10.181573 -2.534295 10.536103 -29.696187 -1.430767 5.765057 28.354859 8.219120 4.996044 -15.588034 0.000000 0.000000 0.000000 4.026487 1.778914 -1.513488 -2.242336 -1.808179 -2.937095 -0.569495 -1.909385 7.653206 0.016190 0.106032 0.023847 -0.906565 -0.425943 8.796703 -1.725430 -2.102411 -7.638322 0.000000 0.000000 0.000000 0.647638 0.324726 6.335562 -11.401350 -6.617103 0.154759 -62.006581 -2.479076 0.100215 1.823202 -16.101522 1.477566 0.000000 0.000000 0.000000 -3.678234 1.583186 5.501979 26.215615 0.172429 5.715009 47.075802 5.769664 8.202822 -3.810438 18.898896 -2.477720 0.000000 0.000000 0.000000 
29.293839 78.963120 -31.105238 179.921444 -5.340244 179.907019 -1.354971 -0.546837 10.189329 1.555189 -5.785147 -33.583070 8.346968 6.959531 28.588884 -6.175974 -4.054686 -8.958820 0.000000 0.000000 0.000000 2.624560 -2.250269 10.295784 -2.462499 10.260601 -29.622933 -1.367159 5.744188 28.175148 8.025791 4.935098 -15.627536 0.000000 0.000000 0.000000 4.275829 1.445465 -1.324883 -2.132266 -1.400604 -3.233346 -0.594779 -1.941902 7.698707 0.026779 0.032199 -0.036208 -1.027503 -0.477590 8.976975 -1.504768 -2.039671 -7.335698 0.000000 0.000000 0.000000 0.525963 0.290231 6.453212 -11.452276 -6.408027 0.221057 -62.183968 -2.891629 1.231477 1.824269 -16.310184 1.543629 0.000000 0.000000 0.000000 -3.807914 1.644479 5.662595 25.923087 0.333745 5.660631 47.180177 5.119571 8.168610 -3.919291 18.535971 -2.584397 0.000000 0.000000 0.000000 
29.347237 78.988136 -31.093351 179.853538 -5.664228 179.847569 -1.389569 -0.668876 10.433911 1.673082 -5.673821 -33.805174 8.352337 7.421520 28.560139 -6.564920 -4.531816 -8.638061 0.000000 0.000000 0.000000 2.674245 -2.461240 10.318397 -2.542348 10.042745 -29.585958 -1.211110 5.863959 28.124057 7.833020 4.948101 -15.742310 0.000000 0.000000 0.000000 4.398081 1.134179 -1.235694 -2.177760 -1.192272 -3.475749 -0.707679 -1.916455 7.802863 -0.004570 0.201480 -0.043911 -1.055863 -0.381016 9.158284 -1.213154 -2.012373 -6.891722 0.000000 0.000000 0.000000 0.457838 0.369716 6.599301 -11.482567 -6.410436 0.206196 -61.987286 -3.463628 2.208454 1.632771 -16.287447 1.668501 0.000000 0.000000 0.000000 -3.882784 1.688193 5.814371 25.754762 0.533409 5.558496 47.209567 4.474531 8.327059 -3.939025 18.352249 -2.649020 0.000000 0.000000 0.000000 
29.474321 79.014542 -31.040850 179.829715 -5.817982 179.785209 -1.458841 -0.718894 10.458990 1.810460 -5.436584 -33.777567 8.423264 7.745242 28.453031 -6.803822 -4.922304 -8.393599 0.000000 0.000000 0.000000 3.004326 -2.604330 10.178519 -2.687437 9.377937 -29.517581 -0.888068 6.267321 28.165158 7.671821 5.050996 -15.977756 0.000000 0.000000 0.000000 4.544168 0.991808 -1.266434 -2.286763 -0.813368 -3.648178 -0.781337 -1.861012 7.911085 0.021229 0.071527 -0.022521 -1.127720 -0.394060 9.332847 -0.931354 -1.933766 -6.363537 0.000000 0.000000 0.000000 0.378444 0.349301 6.697847 -11.466054 -6.520788 0.337494 -61.442722 -4.281659 3.042254 1.570786 -16.043520 1.577474 0.000000 0.000000 0.000000 -3.949374 1.713861 5.924046 25.726983 0.644011 5.398573 47.370316 3.848567 8.731293 -3.949150 18.287464 -2.683550 0.000000 0.000000 0.000000 
